<svg xmlns="http://www.w3.org/2000/svg" width="60.39" height="74.194" viewBox="0 0 60.39 74.194"><defs><style>.a{fill:#ec3c37;}.b{fill:#a20602;}.c,.d{fill:#fff;}.d{stroke:#fff;font-size:19px;font-family:Quicksand-Bold, Quicksand;font-weight:700;}</style></defs><g transform="translate(0 0)"><path class="a" d="M63.64,19.056V69.4A6.067,6.067,0,0,1,57.6,75.444H9.289A6.067,6.067,0,0,1,3.25,69.4V7.289A6.067,6.067,0,0,1,9.289,1.25H45.834a6.067,6.067,0,0,1,4.245,1.76l11.8,11.8a5.98,5.98,0,0,1,1.76,4.245Z" transform="translate(-3.25 -1.25)"/><path class="b" d="M34.842,19.056v2.036H21.9a6.9,6.9,0,0,1-6.9-6.9V1.25h2.033A6.008,6.008,0,0,1,21.28,3.01l11.8,11.8a6,6,0,0,1,1.76,4.245Z" transform="translate(25.548 -1.25)"/><g transform="translate(10.353 21.324)"><path class="c" d="M43.347,24.23H8.838a2.588,2.588,0,0,1,0-5.176H43.347a2.588,2.588,0,0,1,0,5.176Zm-17.254-13.8H8.838a2.588,2.588,0,1,1,0-5.176H26.092a2.588,2.588,0,0,1,0,5.176Z" transform="translate(-6.25 -5.25)"/></g><text class="d" transform="translate(11.107 63.405)"><tspan x="0" y="0">PDF</tspan></text></g></svg>