<svg xmlns="http://www.w3.org/2000/svg" width="67.654" height="67.654" viewBox="0 0 67.654 67.654"><defs><style>.a{fill:#ff3b9d;}.b{fill:#b21363;}</style></defs><path class="a" d="M59.506,2H12.148A10.178,10.178,0,0,0,2,12.148V48.884l22.8-6.157a3.273,3.273,0,0,1,2.74.44l8.389,5.581,15.087-9.066a3.421,3.421,0,0,1,3.586.068l15.053,9.878V12.148A10.178,10.178,0,0,0,59.506,2ZM22.3,29.062A6.765,6.765,0,1,1,29.062,22.3,6.785,6.785,0,0,1,22.3,29.062ZM52.673,46.584,69.654,57.747v1.759A10.178,10.178,0,0,1,59.506,69.654H12.148A10.178,10.178,0,0,1,2,59.506v-3.62l23.07-6.258,8.9,5.92a3.352,3.352,0,0,0,3.586.1Z" transform="translate(-2 -2)"/><path class="b" d="M52.673,49.675,69.654,61.733v1.9c0,6.029-4.567,10.962-10.148,10.962H12.148C6.567,74.6,2,69.663,2,63.633v-3.91l23.07-6.76,8.9,6.395a3.144,3.144,0,0,0,3.586.11Z" transform="translate(-2 -6.941)"/></svg>