<svg xmlns="http://www.w3.org/2000/svg" xmlns:xlink="http://www.w3.org/1999/xlink" width="275.534" height="273.113" viewBox="0 0 275.534 273.113"><defs><style>.a{fill:#fff;}.b,.d{fill:#adc1d6;font-family:HelveticaNeue-Medium, Helvetica Neue;font-weight:500;}.b{font-size:27px;}.c{fill:#afc3d8;}.d{font-size:28px;}.e{fill:#b2d6fd;}.f{fill:url(#c);}.g,.h,.i{stroke:none;}.h{fill:#7fb6f7;}.i{fill:#3793f9;}.j{filter:url(#e);}.k{filter:url(#a);}</style><filter id="a" x="25.396" y="0" width="227.417" height="273.113" filterUnits="userSpaceOnUse"><feOffset dy="3" input="SourceAlpha"/><feGaussianBlur stdDeviation="18" result="b"/><feFlood flood-color="#0547b1" flood-opacity="0.302"/><feComposite operator="in" in2="b"/><feComposite in="SourceGraphic"/></filter><linearGradient id="c" x1="0.5" x2="0.5" y2="1" gradientUnits="objectBoundingBox"><stop offset="0" stop-color="#3e9efa"/><stop offset="1" stop-color="#2c82f9"/></linearGradient><filter id="e" x="139.493" y="153.883" width="80" height="79" filterUnits="userSpaceOnUse"><feOffset dx="-6" dy="-6" input="SourceAlpha"/><feGaussianBlur stdDeviation="3" result="f"/><feFlood flood-color="#2e6dbc" flood-opacity="0.306"/><feComposite operator="in" in2="f"/><feComposite in="SourceGraphic"/></filter></defs><g transform="translate(-1095.506 -1792.41)"><g transform="translate(1098.474 1868.88)"><g class="a" transform="translate(0 23.975) rotate(-16)"><path class="g" d="M 77.63083648681641 122.8585891723633 L 77.61073303222656 122.8585739135742 L 9.371382713317871 122.8585739135742 L 9.350099563598633 122.8585891723633 C 7.957649230957031 122.8586502075195 6.599332809448242 122.5885009765625 5.312899589538574 122.0556564331055 C 4.026416301727295 121.5227737426758 2.874799489974976 120.7532730102539 1.890049457550049 119.7684860229492 C 0.9024827480316162 118.7809219360352 0.1314827352762222 117.625617980957 -0.4015172719955444 116.3346710205078 C -0.9345005750656128 115.0437393188477 -1.203150629997253 113.681022644043 -1.199967265129089 112.2843704223633 L -1.199967265129089 9.371503829956055 C -1.203150629997253 7.977587223052979 -0.9345005750656128 6.614870548248291 -0.4015172719955444 5.323920249938965 C 0.1314827352762222 4.032987117767334 0.9024827480316162 2.877670526504517 1.890049457550049 1.890103697776794 C 2.874732732772827 0.905403733253479 4.026366233825684 0.1359204053878784 5.312932968139648 -0.3969796001911163 C 6.599382877349854 -0.9298129081726074 7.957665920257568 -1.199979543685913 9.350049018859863 -1.199979543685913 L 9.374115943908691 -1.199962973594666 L 77.61301422119141 -1.199962973594666 L 77.63083648681641 -1.199979543685913 C 79.02359771728516 -1.199979543685913 80.3822021484375 -0.9296795725822449 81.66889953613281 -0.3965795934200287 C 82.95571899414062 0.1365537345409393 84.10748291015625 0.9063870906829834 85.09223175048828 1.891503691673279 C 86.07936859130859 2.87902045249939 86.85001373291016 4.034170627593994 87.38276672363281 5.324837207794189 C 87.91549682617188 6.615503787994385 88.18401336669922 7.977920532226562 88.18084716796875 9.374237060546875 L 88.18084716796875 112.2871017456055 C 88.18401336669922 113.6806716918945 87.91549682617188 115.0430908203125 87.38275146484375 116.3337554931641 C 86.85001373291016 117.6244201660156 86.07936859130859 118.7795715332031 85.09223175048828 119.76708984375 C 84.10755157470703 120.7521362304688 82.95576477050781 121.5219345092773 81.66883087158203 122.0551071166992 C 80.38211822509766 122.5881881713867 79.02352905273438 122.8585205078125 77.63083648681641 122.8585891723633 Z"/><path class="h" d="M 9.350090026855469 -7.62939453125e-06 C 6.870635986328125 -7.62939453125e-06 4.492240905761719 0.9849319458007812 2.738578796386719 2.738609313964844 C 0.979888916015625 4.497337341308594 -0.00563812255859375 6.884300231933594 3.0517578125e-05 9.371505737304688 L 3.0517578125e-05 112.2871017456055 C -0.00563812255859375 114.7743072509766 0.979888916015625 117.1612701416016 2.738578796386719 118.9199600219727 C 4.492347717285156 120.6737442016602 6.870407104492188 121.6585845947266 9.350021362304688 121.6585845947266 C 9.357002258300781 121.6585845947266 9.364395141601562 121.658576965332 9.371376037597656 121.658561706543 L 77.61301422119141 121.658561706543 C 77.61908721923828 121.6585693359375 77.62474822998047 121.658576965332 77.63081359863281 121.658576965332 C 80.11081695556641 121.658576965332 82.48989105224609 120.6730270385742 84.24352264404297 118.9187240600586 C 86.00147247314453 117.1600875854492 86.98648834228516 114.773681640625 86.9808349609375 112.2870864868164 L 86.9808349609375 9.371505737304688 C 86.98648834228516 6.884902954101562 86.00147247314453 4.498481750488281 84.24354553222656 2.7398681640625 C 82.48966979980469 0.9853286743164062 80.11107635498047 -0.0001220703125 77.63074493408203 -7.62939453125e-06 C 77.62498474121094 0 77.61878204345703 0 77.61301422119141 1.52587890625e-05 L 9.371376037597656 1.52587890625e-05 C 9.364242553710938 0 9.357223510742188 -7.62939453125e-06 9.350090026855469 -7.62939453125e-06 M 9.350090026855469 -2.400009155273438 L 9.37750244140625 -2.399986267089844 L 77.61301422119141 -2.399986267089844 L 77.63074493408203 -2.400009155273438 C 79.18190765380859 -2.400077819824219 80.69510650634766 -2.099044799804688 82.12819671630859 -1.505294799804688 C 83.56130218505859 -0.911529541015625 84.84408569335938 -0.05411529541015625 85.94092559814453 1.043136596679688 C 87.04034423828125 2.142997741699219 87.89863586425781 3.429519653320312 88.49198150634766 4.866996765136719 C 89.08530426025391 6.304466247558594 89.38436126708984 7.821846008300781 89.38082885742188 9.376960754394531 L 89.38082885742188 112.2816314697266 C 89.38436126708984 113.8367614746094 89.08530426025391 115.354118347168 88.49198150634766 116.7915954589844 C 87.89863586425781 118.2290649414062 87.04034423828125 119.5155944824219 85.94090270996094 120.6154479980469 C 84.84421539306641 121.7125778198242 83.56143188476562 122.569938659668 82.12818145751953 123.1637420654297 C 80.69505310058594 123.7575225830078 79.18192291259766 124.0585784912109 77.63081359863281 124.0585784912109 L 77.61301422119141 124.0585479736328 L 77.61301422119141 124.0585556030273 L 9.377632141113281 124.0585556030273 L 9.350013732910156 124.0585784912109 C 7.799179077148438 124.0585784912109 6.286399841308594 123.757682800293 4.853683471679688 123.1642456054688 C 3.420852661132812 122.5707778930664 2.138252258300781 121.7137603759766 1.04150390625 120.6170120239258 C -0.05838775634765625 119.5171203613281 -0.9170608520507812 118.2304153442383 -1.510696411132812 116.7926330566406 C -2.10430908203125 115.354850769043 -2.403511047363281 113.8371429443359 -2.399971008300781 112.2816314697266 L -2.399971008300781 9.376976013183594 C -2.403511047363281 7.821487426757812 -2.10430908203125 6.303756713867188 -1.510696411132812 4.865974426269531 C -0.9170761108398438 3.428192138671875 -0.05838775634765625 2.141487121582031 1.04150390625 1.041580200195312 C 2.138198852539062 -0.0551300048828125 3.420829772949219 -0.9121475219726562 4.853759765625 -1.505661010742188 C 6.286544799804688 -2.099098205566406 7.799324035644531 -2.400009155273438 9.350090026855469 -2.400009155273438 Z"/></g><text class="b" transform="translate(26.083 63.591) rotate(-16)"><tspan x="0" y="0">Pdf</tspan></text><g transform="matrix(-0.966, 0.259, -0.259, -0.966, 88.497, 104.976)"><rect class="c" width="20.06" height="2.675" rx="1.337" transform="translate(28.084 35.229)"/><rect class="c" width="48.143" height="2.675" rx="1.338" transform="translate(0 23.903)"/><rect class="c" width="48.143" height="2.675" rx="1.338" transform="translate(0 11.951)"/><rect class="c" width="48.143" height="2.675" rx="1.338" transform="translate(0 0)"/></g></g><g transform="translate(1250.926 1863.53)"><g class="a" transform="translate(83.612 140.921) rotate(-164)"><path class="g" d="M 9.350029945373535 122.8580856323242 C 7.95764684677124 122.8580856323242 6.599363327026367 122.5879135131836 5.312930107116699 122.0550842285156 C 4.026346683502197 121.5221862792969 2.87471342086792 120.7527160644531 1.890046715736389 119.7680206298828 C 0.9024801254272461 118.7804489135742 0.1314800977706909 117.6251525878906 -0.4015032351016998 116.3342132568359 C -0.9345032572746277 115.0432815551758 -1.203153252601624 113.6805648803711 -1.199969887733459 112.283935546875 L -1.199753284454346 9.371583938598633 C -1.202919840812683 7.977666854858398 -0.9342865347862244 6.614966869354248 -0.4012865722179413 5.324033260345459 C 0.1317301094532013 4.033083438873291 0.902713418006897 2.877783536911011 1.89028012752533 1.890216827392578 C 2.875030040740967 0.9054667949676514 4.026663303375244 0.1359668225049973 5.313196659088135 -0.3968998491764069 C 6.599596977233887 -0.9297165274620056 7.957896709442139 -1.199866533279419 9.350363731384277 -1.199866533279419 L 9.374363899230957 -1.199849843978882 L 77.61336517333984 -1.1999831199646 L 77.63112640380859 -1.199999809265137 C 79.02381134033203 -1.199999809265137 80.38241577148438 -0.9296832084655762 81.66919708251953 -0.3965665102005005 C 82.95607757568359 0.1365834921598434 84.10787963867188 0.9063835144042969 85.09255981445312 1.891450166702271 C 86.0797119140625 2.879000186920166 86.85034942626953 4.034133434295654 87.38309478759766 5.324783325195312 C 87.91583251953125 6.615450382232666 88.18434906005859 7.977849960327148 88.18118286132812 9.374150276184082 L 88.18096160888672 112.2864837646484 C 88.18412780761719 113.6800537109375 87.91561126708984 115.0424499511719 87.38286590576172 116.3331146240234 C 86.85012817382812 117.6237869262695 86.07948303222656 118.7789306640625 85.09234619140625 119.7664489746094 C 84.10758209228516 120.7515640258789 82.95579528808594 121.5214004516602 81.66896057128906 122.0545349121094 C 80.38224792480469 122.5876312255859 79.02362823486328 122.8579330444336 77.63088226318359 122.8579330444336 L 77.61083221435547 122.8579177856445 L 9.371379852294922 122.8580703735352 L 9.350029945373535 122.8580856323242 Z"/><path class="h" d="M 9.350022315979004 121.658088684082 C 9.357155799865723 121.658088684082 9.364243507385254 121.6580810546875 9.371378898620605 121.6580657958984 L 77.61310577392578 121.6579132080078 C 77.61887359619141 121.6579284667969 77.62507629394531 121.6579360961914 77.63083648681641 121.6579360961914 C 80.11116790771484 121.6579360961914 82.48978424072266 120.6726226806641 84.24362945556641 118.918083190918 C 86.00157928466797 117.1594619750977 86.98661804199219 114.773063659668 86.98095703125 112.2864837646484 L 86.98117828369141 9.371407508850098 C 86.98683166503906 6.884825706481934 86.00180053710938 4.498444080352783 84.24386596679688 2.739825963973999 C 82.490234375 0.9855193495750427 80.11116027832031 9.008788765640929e-06 77.63116455078125 9.008788765640929e-06 C 77.62509155273438 9.008788765640929e-06 77.61943054199219 1.437100490875309e-05 77.61335754394531 2.591219890746288e-05 L 9.371633529663086 0.0001531849266029894 C 9.364649772644043 0.0001373091217828915 9.357326507568359 0.0001290372019866481 9.350345611572266 0.0001290372019866481 C 6.870712280273438 0.0001290372019866481 4.492586135864258 0.9849637746810913 2.738815069198608 2.738753080368042 C 0.9801240563392639 4.497462272644043 -0.00540322856977582 6.884389400482178 0.0002331348805455491 9.371589660644531 L 3.313487832201645e-05 112.2866592407227 C -0.005639592185616493 114.7738418579102 0.9798694849014282 117.1607894897461 2.73857855796814 118.9195022583008 C 4.492224216461182 120.6731643676758 6.870553493499756 121.658073425293 9.350022315979004 121.658088684082 M 9.350014686584473 124.0580825805664 C 7.799251079559326 124.0580825805664 6.286487579345703 123.7571868896484 4.853724002838135 123.1637496948242 C 3.420814990997314 122.5702438354492 2.138196706771851 121.7132415771484 1.041505813598633 120.6165542602539 C -0.05838504806160927 119.5166473388672 -0.9170759320259094 118.2299346923828 -1.510694146156311 116.7921676635742 C -2.104312419891357 115.3543930053711 -2.403512239456177 113.8366775512695 -2.399966955184937 112.2811889648438 L -2.39976692199707 9.377019882202148 C -2.403294086456299 7.821535110473633 -2.104075908660889 6.303825855255127 -1.510457754135132 4.866062164306641 C -0.9168214201927185 3.428316831588745 -0.05814868211746216 2.141607761383057 1.041742205619812 1.041698694229126 C 2.138487577438354 -0.05504681542515755 3.421105861663818 -0.9120649695396423 4.853978633880615 -1.505555868148804 C 6.286687850952148 -2.098973989486694 7.799487590789795 -2.399864912033081 9.350341796875 -2.399864912033081 L 9.377869606018066 -2.399846792221069 L 77.61335754394531 -2.39997410774231 L 77.63115692138672 -2.399992227554321 C 79.18226623535156 -2.399992227554321 80.69539642333984 -2.098937749862671 82.12850952148438 -1.505192279815674 C 83.56175994873047 -0.9113922715187073 84.84455871582031 -0.05402863398194313 85.94125366210938 1.04309868812561 C 87.04067230224609 2.142953157424927 87.89897918701172 3.429462194442749 88.4923095703125 4.866916656494141 C 89.08564758300781 6.304389476776123 89.38470458984375 7.821753025054932 89.38117980957031 9.376862525939941 L 89.38095855712891 112.2810287475586 C 89.38449096679688 113.8361358642578 89.08543395996094 115.3535003662109 88.49208831787109 116.7909698486328 C 87.89874267578125 118.2284469604492 87.04043579101562 119.5149688720703 85.94101715087891 120.6148071289062 C 84.84421539306641 121.712043762207 83.56141662597656 122.5694427490234 82.12827301025391 123.1632080078125 C 80.69525146484375 123.7568969726562 79.18210601806641 124.0579376220703 77.63083648681641 124.0579376220703 L 77.61310577392578 124.0579071044922 L 77.61310577392578 124.0579147338867 L 9.377506256103516 124.0580596923828 L 9.377506256103516 124.0580596923828 L 9.350014686584473 124.0580825805664 Z"/></g><text class="d" transform="translate(40.808 49.07) rotate(16)"><tspan x="0" y="0">Doc</tspan></text><g transform="translate(38.85 67.738) rotate(17)"><rect class="c" width="20.059" height="2.675" rx="1.337" transform="translate(28.084 0)"/><rect class="c" width="48.143" height="2.675" rx="1.337" transform="translate(0 11.326)"/><rect class="c" width="48.143" height="2.675" rx="1.337" transform="translate(0 23.277)"/><rect class="c" width="48.143" height="2.675" rx="1.337" transform="translate(0 35.228)"/></g></g><g transform="translate(1177.302 1845.81)"><g class="k" transform="matrix(1, 0, 0, 1, -81.8, -53.4)"><g class="a" transform="translate(74.87 74.34)"><path class="g" d="M 19.24692344665527 140.5712738037109 C 17.46238136291504 140.5713348388672 15.72158908843994 140.2251129150391 14.07290172576904 139.5422210693359 C 12.42415142059326 138.8592987060547 10.94823551177979 137.8731079101562 9.686172485351562 136.6110229492188 C 8.420526504516602 135.3453521728516 7.432422637939453 133.8647308349609 6.74933910369873 132.2102813720703 C 6.066235065460205 130.5558166503906 5.721964359283447 128.8093566894531 5.72602653503418 127.0194396972656 L 5.72602653503418 -8.592890739440918 C 5.721964359283447 -10.38007831573486 6.066235065460205 -12.12653636932373 6.74933910369873 -13.7809944152832 C 7.432422637939453 -15.43545341491699 8.420526504516602 -16.91609954833984 9.686172485351562 -18.18176651000977 C 10.94813060760498 -19.44374465942383 12.42404747009277 -20.42991065979004 14.072922706604 -21.11286926269531 C 15.72163105010986 -21.79574394226074 17.46240234375 -22.14201545715332 19.24686050415039 -22.14201545715332 L 19.27767181396484 -22.1419734954834 L 109.1990661621094 -22.1419734954834 L 109.222526550293 -22.14199447631836 C 111.0074615478516 -22.14199447631836 112.7486343383789 -21.79557800292969 114.3976745605469 -21.11236953735352 C 116.0468368530273 -20.42909812927246 117.5229415893555 -19.44249534606934 118.7849884033203 -18.17997360229492 C 120.0501098632812 -16.91434860229492 121.0377578735352 -15.43393230438232 121.7205047607422 -13.77982807159424 C 122.4032745361328 -12.12570285797119 122.7473831176758 -10.37966156005859 122.7433166503906 -8.590161323547363 L 122.7433166503906 127.0221481323242 C 122.7473831176758 128.8088989257812 122.4032592773438 130.5549621582031 121.7205047607422 132.2090911865234 C 121.0377349853516 133.8631896972656 120.0500869750977 135.3436126708984 118.7849655151367 136.6092071533203 C 117.5230255126953 137.8716583251953 116.0469055175781 138.8582153320312 114.3976287841797 139.54150390625 C 112.7485656738281 140.2247161865234 111.0074234008789 140.5711517333984 109.2225646972656 140.5712280273438 L 109.19677734375 140.5712127685547 L 19.27496337890625 140.5712280273438 L 19.24692344665527 140.5712738037109 Z"/><path class="h" d="M 19.24688720703125 -20.9420166015625 C 15.9796142578125 -20.9420166015625 12.84554290771484 -19.64413452148438 10.53469085693359 -17.33326721191406 C 8.217216491699219 -15.01573181152344 6.918563842773438 -11.87037658691406 6.926017761230469 -8.592910766601562 L 6.926017761230469 127.0221557617188 C 6.918563842773438 130.2996063232422 8.217216491699219 133.4450073242188 10.53471374511719 135.7624969482422 C 12.84568786621094 138.0735168457031 15.97941589355469 139.3712768554688 19.24688720703125 139.3712768554688 C 19.25608062744141 139.3712768554688 19.26575469970703 139.3712615966797 19.27495574951172 139.3712463378906 L 109.1990661621094 139.3712158203125 C 109.2070617675781 139.3712310791016 109.2144775390625 139.3712463378906 109.2224731445312 139.3712463378906 C 112.4904327392578 139.3712463378906 115.6254577636719 138.0725555419922 117.936279296875 135.7608489990234 C 120.2527618408203 133.4434509277344 121.55078125 130.2987976074219 121.543327331543 127.0221557617188 L 121.543327331543 -8.592910766601562 C 121.55078125 -11.86956787109375 120.2527618408203 -15.01422119140625 117.936279296875 -17.33160400390625 C 115.6253204345703 -19.64347839355469 112.4906539916992 -20.94200134277344 109.2224731445312 -20.94200134277344 C 109.2146759033203 -20.94200134277344 109.2068634033203 -20.94198608398438 109.1990661621094 -20.94198608398438 L 19.27495574951172 -20.94198608398438 C 19.26555633544922 -20.94200134277344 19.25628662109375 -20.9420166015625 19.24688720703125 -20.9420166015625 M 19.24688720703125 -23.34199523925781 L 19.280517578125 -23.34197998046875 L 109.1923675537109 -23.34197998046875 L 109.2224731445312 -23.34199523925781 C 111.1658477783203 -23.34199523925781 113.0615615844727 -22.96484375 114.8569564819336 -22.22099304199219 C 116.6525192260742 -21.47708129882812 118.2596282958984 -20.40290832519531 119.633674621582 -19.0283203125 C 121.0110626220703 -17.65040588378906 122.0863647460938 -16.03858947753906 122.829719543457 -14.23770141601562 C 123.5730895996094 -12.436767578125 123.9477615356445 -10.5357666015625 123.9433212280273 -8.587455749511719 L 123.9433212280273 127.0166931152344 C 123.9477615356445 128.9649963378906 123.5730895996094 130.8659973144531 122.829719543457 132.6669311523438 C 122.0863647460938 134.4678192138672 121.0110626220703 136.0796508789062 119.633674621582 137.4575653076172 C 118.2596969604492 138.8320922851562 116.6525650024414 139.9062194824219 114.8569107055664 140.6501770019531 C 113.0614318847656 141.3940734863281 111.1657409667969 141.771240234375 109.2224731445312 141.771240234375 L 109.1925430297852 141.7712097167969 L 19.28063201904297 141.771240234375 L 19.28063201904297 141.771240234375 L 19.24688720703125 141.7712554931641 C 17.30393218994141 141.7712554931641 15.40865325927734 141.3943023681641 13.61371612548828 140.6508483886719 C 11.81858825683594 139.9073028564453 10.211669921875 138.8335876464844 8.837654113769531 137.4595489501953 C 7.459671020507812 136.0815734863281 6.383865356445312 134.4695129394531 5.640151977539062 132.668212890625 C 4.896430969238281 130.8669281005859 4.521583557128906 128.9654846191406 4.526023864746094 127.0166931152344 L 4.526023864746094 -8.587455749511719 C 4.521583557128906 -10.53623962402344 4.896430969238281 -12.43766784667969 5.640151977539062 -14.23898315429688 C 6.383865356445312 -16.04026794433594 7.459648132324219 -17.65229797363281 8.837631225585938 -19.03030395507812 C 10.21158599853516 -20.40428161621094 11.81849670410156 -21.47798156738281 13.61373901367188 -22.22154235839844 C 15.40876007080078 -22.96502685546875 17.30403900146484 -23.34199523925781 19.24688720703125 -23.34199523925781 Z"/></g></g><path class="e" d="M32.456,12.039a13.068,13.068,0,0,0-8.933,3.8L6.937,32.43v47.1A12.471,12.471,0,0,0,19.3,91.9h84.333L41.02,15.843a10.647,10.647,0,0,0-8.559-3.8Z" transform="translate(-6.886 68.626)"/><path class="f" d="M84.526,10.418a12.343,12.343,0,0,0-8.746,3.631L6.937,82.893v2.581A12.34,12.34,0,0,0,19.3,97.842h90.064a12.34,12.34,0,0,0,12.368-12.368V42.518L93.268,14.049a12.326,12.326,0,0,0-8.741-3.631Z" transform="translate(-6.886 62.686)"/><path class="f" d="M28.875,32.081A14.188,14.188,0,1,1,43.062,17.893,14.188,14.188,0,0,1,28.875,32.081Z" transform="translate(5.486 20.684)"/></g><g transform="translate(1250.292 1961.071)"><g class="j" transform="matrix(1, 0, 0, 1, -154.79, -168.66)"><ellipse class="e" cx="31" cy="30.5" rx="31" ry="30.5" transform="translate(154.49 168.88)"/></g><g class="a" transform="translate(-29.114 -26.638)"><path class="g" d="M 52.64023971557617 70.34225463867188 C 52.64021682739258 70.34225463867188 52.64020156860352 70.34225463867188 52.64018249511719 70.34225463867188 C 52.5537109375 70.34225463867188 52.46844100952148 70.31941986083984 52.39359283447266 70.27620697021484 C 52.24214172363281 70.18876647949219 52.14764022827148 70.02581787109375 52.14698028564453 69.85094451904297 L 52.14699172973633 44.94114685058594 C 52.14772033691406 44.77053451538086 52.24225234985352 44.60764694213867 52.39369964599609 44.52026748657227 C 52.46852111816406 44.47709655761719 52.55375289916992 44.45427703857422 52.64015197753906 44.45427703857422 C 52.72597122192383 44.45427703857422 52.81069183349609 44.476806640625 52.88515090942383 44.51943588256836 L 74.45693206787109 56.97538757324219 C 74.60707092285156 57.06224822998047 74.70077514648438 57.22469711303711 74.70077514648438 57.39894485473633 C 74.70077514648438 57.57320785522461 74.60707855224609 57.73564529418945 74.45625305175781 57.82289505004883 L 52.88199234008789 70.27891540527344 C 52.81069946289062 70.31971740722656 52.72600555419922 70.34225463867188 52.64023971557617 70.34225463867188 Z"/><path class="i" d="M 53.14699172973633 68.97120666503906 L 73.19060516357422 57.39892578125 L 53.14699172973633 45.82537460327148 L 53.14699172973633 68.97120666503906 M 52.6401481628418 71.34226226806641 C 52.38236999511719 71.34224700927734 52.12456893920898 71.27556610107422 51.89364242553711 71.14225769042969 C 51.43334197998047 70.87653350830078 51.14899063110352 70.38617706298828 51.14699172973633 69.85470581054688 L 51.14699172973633 44.94114685058594 C 51.14923095703125 44.40979766845703 51.43368148803711 43.9196662902832 51.8939323425293 43.65410614013672 C 52.12480926513672 43.52089691162109 52.38246536254883 43.45427703857422 52.64015579223633 43.45427703857422 C 52.89615631103516 43.45427703857422 53.15219116210938 43.52003479003906 53.38199234008789 43.65159606933594 L 74.95697021484375 56.1093864440918 C 75.41730499267578 56.37568664550781 75.70077514648438 56.86714553833008 75.70077514648438 57.39894485473633 C 75.70077514648438 57.93074798583984 75.41730499267578 58.42222595214844 74.95697021484375 58.68850708007812 L 53.38199234008789 71.14493560791016 C 53.15216064453125 71.27651214599609 52.89616775512695 71.34226989746094 52.6401481628418 71.34226226806641 Z"/></g></g></g></svg>