<svg xmlns="http://www.w3.org/2000/svg" width="79.553" height="61.171" viewBox="0 0 79.553 61.171"><defs><style>.a{fill:#ffca3b;}.b{fill:#c77021;stroke:#fff;stroke-linecap:round;stroke-linejoin:round;stroke-width:4px;}</style></defs><path class="a" d="M81.553,18.234v36.7a3.091,3.091,0,0,1-1.395,2.6,2.839,2.839,0,0,1-2.855.136L63.93,50.713v4.224A12.011,12.011,0,0,1,52.182,67.171H13.749A12.011,12.011,0,0,1,2,54.937v-36.7A12.014,12.014,0,0,1,13.749,6H52.182A12.014,12.014,0,0,1,63.93,18.234v4.227L77.3,15.5a2.839,2.839,0,0,1,2.857.137A3.092,3.092,0,0,1,81.553,18.234Z" transform="translate(-2 -6)"/><path class="b" d="M28.729,30.787,49.578,43.48,28.729,57.3Z" transform="translate(-4.913 -13.541)"/></svg>