<svg xmlns="http://www.w3.org/2000/svg" width="60.273" height="74.05" viewBox="0 0 60.273 74.05"><defs><style>.a{fill:#057bf1;}.b{fill:#0156ac;}.c,.d{fill:#fff;}.d{stroke:#fff;font-size:19px;font-family:Quicksand-Bold, Quicksand;font-weight:700;letter-spacing:0.004em;}</style></defs><g transform="translate(0 0)"><path class="a" d="M63.523,19.022v50.25A6.055,6.055,0,0,1,57.5,75.3H9.277A6.055,6.055,0,0,1,3.25,69.272v-62A6.055,6.055,0,0,1,9.277,1.25H45.751a6.055,6.055,0,0,1,4.236,1.757L61.766,14.786a5.969,5.969,0,0,1,1.757,4.236Z" transform="translate(-3.25 -1.25)"/><path class="b" d="M34.8,19.022v2.032H21.888A6.888,6.888,0,0,1,15,14.166V1.25h2.029a6,6,0,0,1,4.239,1.756L33.047,14.786A5.986,5.986,0,0,1,34.8,19.022Z" transform="translate(25.469 -1.25)"/><g transform="translate(10.333 21.287)"><path class="c" d="M43.275,24.193H8.833a2.583,2.583,0,1,1,0-5.166H43.275a2.583,2.583,0,1,1,0,5.166ZM26.054,10.416H8.833a2.583,2.583,0,1,1,0-5.166H26.054a2.583,2.583,0,0,1,0,5.166Z" transform="translate(-6.25 -5.25)"/></g><text class="d" transform="translate(9.289 62.827)"><tspan x="0" y="0">DOC</tspan></text></g></svg>