<svg xmlns="http://www.w3.org/2000/svg" width="93.974" height="78.261" viewBox="0 0 93.974 78.261"><defs><style>.a{fill:#c14100;}.b{fill:#ff6e21;}</style></defs><path class="a" d="M77.44,10.441a11.7,11.7,0,0,0-11.7,11.7A11.513,11.513,0,0,0,66.925,27.3a11.833,11.833,0,0,0,6.153,5.747l-.02-.049a11.484,11.484,0,0,0,4.382.851,11.7,11.7,0,1,0,0-23.4Zm-60.328,37.3H5.163a2.62,2.62,0,0,1-2.651-2.255,2.507,2.507,0,0,1,2.5-2.76h12.1a2.508,2.508,0,0,1,0,5.015Z" transform="translate(-2.499 -10.441)"/><path class="b" d="M96.59,43.082a5.044,5.044,0,0,1-1.672,3.581L81.545,59a1.663,1.663,0,0,1-1.939.237L67.647,52.647,62.9,57.376l7.488,12.582a1.669,1.669,0,0,1-.148,1.939L57.668,86.94a5.017,5.017,0,0,1-3.442,1.82h-.059a5.226,5.226,0,0,1-3.343-1.138,5.539,5.539,0,0,1-1.138-7.27l5.539-8.764-6.687-7.617L21.445,83.033a5.091,5.091,0,0,1-2.888.9,5.15,5.15,0,0,1-3.947-1.84,5.019,5.019,0,0,1,.336-6.806L39,51.143l.237-.237L42.347,47.8l8.962-8.962-3.314-4.2a2.136,2.136,0,0,0-3.086-.307l-4.55,3.907a5.017,5.017,0,0,1-6.806-7.31l14.4-14.589a1.654,1.654,0,0,1,2.334,0L64.256,29.372l7.023,6.558,8.527,7.943a2.039,2.039,0,0,0,2.71.049l5.619-4.867a5.016,5.016,0,0,1,6.8.247l.129.138a5,5,0,0,1,1.523,3.64Z" transform="translate(-2.617 -10.5)"/><path class="b" d="M29.178,55.118l-5.035,5.015H8.475a2.508,2.508,0,1,1,0-5.015ZM17.1,67.147l-5.035,5.015H9.414a2.508,2.508,0,1,1,0-5.015ZM41.256,43.08,36.221,48.1H31.384a2.508,2.508,0,0,1,0-5.015Z" transform="translate(-2.536 -10.794)"/></svg>