<svg xmlns="http://www.w3.org/2000/svg" width="693" height="443" viewBox="0 0 693 443"><defs><style>.a{fill:#ffe0bc;}.b{fill:#ff65b2;}.c,.h,.j{fill:#1d2531;}.d{fill:#ffb705;}.e{fill:#626c75;}.f{fill:#f3bc1d;}.g{fill:#ffb731;}.h{stroke:#1d2531;}.i,.j{stroke:none;}</style></defs><g transform="translate(-265 -2326)"><path class="a" d="M36,0H657a36,36,0,0,1,36,36V407a36,36,0,0,1-36,36H36A36,36,0,0,1,0,407V36A36,36,0,0,1,36,0Z" transform="translate(265 2326)"/><g transform="translate(2248.75 2463.547)"><g transform="translate(-11.177 -33.087)"><path class="b" d="M-1735.412-38.664c24-8.932,48.237-17.023,73.63-21.036,19.4-3.067,38.789-4.223,58,1.339,15.832,4.583,28.076,13.586,36.228,28.227,15.7,28.2,24.278,58.7,30.012,90.183,1.826,10.022,2.9,20.133,3.921,30.255q.268,3.625.537,7.25c-.364,12.256-1.46,24.375-6.609,35.745a19.419,19.419,0,0,0-3.451,6.179,79.263,79.263,0,0,1-29.072,22.548l-7.037,2.8c-15.212,6.5-30.858,11.79-46.6,16.829-2.28-.18-4.365.61-6.472,1.294l-4.252.919a64.413,64.413,0,0,1,10.643-15.371,46.824,46.824,0,0,1,4.791,2.4c4.513,2.916,7.726,2.222,11.22-2.21,7.31-9.271,15.18-18.106,22.972-26.988,2.972-3.387,3-5.6-1.295-7.848-14.176-7.423-25.833-17.878-35.709-30.393-3.819-4.838-4.724-4.91-8.985-.107-9.267,10.447-18.293,21.112-27.73,31.4-3.236,3.529-3.767,6.231.008,9.354-9.422,7.734-15.726,17.938-22.288,27.961-4.794,7.322-9.57,14.71-17.092,19.687l-11.9-.266c-1.771-3.837-.772-7.993-1.353-11.971-.308-2.106-.882-4-3.334-3.972-2.541.033-2.986,1.977-2.939,4.115.076,3.527.108,7.056.157,10.584-14.35-2.968-26.554-9.45-35.325-21.556-.488-2.738.953-5.217,1.063-7.876.128-3.036,3.585-7.281-1.27-8.668-4.678-1.338-3.279,4.366-5.19,6.474-13.13-28.239-19.472-58.292-23.712-88.9-1.647-11.884-3.331-23.772-3.781-35.778-.664-17.7.882-34.828,13.418-48.923C-1758.353-30.8-1737.292-37.848-1735.412-38.664Zm136.536,83.843a18.528,18.528,0,0,0,7.737-2.336c1.742-.938,3.581-2.182,2.482-4.608-1.211-2.67-3.159-2.019-5.375-1.1-7.6,3.161-12.26,1.573-16.024-5.507-1.113-2.094-2.129-3.984-4.773-2.781-2.738,1.244-1.737,3.626-1.031,5.59C-1613.681,40.5-1606.634,45.153-1598.876,45.179ZM-1600.1.5c-3,.258-3.478,2.329-3,4.9.975,5.23,2.108,10.432,3.013,15.674.4,2.3,1.5,3.874,3.8,3.4,2.151-.443,2.974-2.2,2.495-4.553-1.062-5.213-1.979-10.455-2.935-15.688C-1597.071,2.368-1597.753.827-1600.1.5Zm-11.847,9.275c-1.632.648-3.092,1.571-2.948,3.763.139,2.115.746,3.991,3.372,3.934,2.212-.047,3.074-1.383,3.083-3.52C-1608.431,11.626-1609.479,10.273-1611.947,9.778Zm25.863-4.415a3.123,3.123,0,0,0-3.223,3.429c-.038,2.005.589,3.65,2.7,3.979,2.169.337,3.4-1.13,3.594-3.074A3.676,3.676,0,0,0-1586.084,5.363Z" transform="translate(0 2.084)"/><path class="c" d="M-1627.638,154.41a64.4,64.4,0,0,0-10.643,15.373c-1.513,2.2-3.13,4.339-4.526,6.612-9.365,15.26-18.13,30.954-31.26,43.492-1.87,1.786-1.673,3.746-1.443,5.915,1.716,16.213,2.8,32.466,3.034,48.774.163,11.28.406,22.56.571,33.841.036,2.459-.017,4.665,3.5,4.64,11.823-.084,23.646-.047,35.469,0,2.789.012,3.169-1.079,1.668-3.161a12.442,12.442,0,0,1-2.4-9.048c2.007-19.255,2.586-38.591,2.712-57.935.161-24.729-1.468-49.393-3.078-74.053,2.108-.684,4.192-1.474,6.473-1.294.21,3.758.353,7.518.637,11.269a760.442,760.442,0,0,1,.127,119.81c-.776,9.456,3.429,14.4,12.715,14.4,6.276,0,12.553.045,18.829-.038,1.276-.017,2.916.689,3.746-1.068-4.346-6.865-4.381-6.873-2.743-14.771,10.008-48.306,14.075-97.15,13.286-146.434l7.037-2.8c-.751,18.982-.575,37.981-1.687,56.963a665.352,665.352,0,0,1-12.4,94.256,11.616,11.616,0,0,0,11.23,13.88c11.3.029,22.591,0,33.886.023a16.929,16.929,0,0,1,4.266.324,2.858,2.858,0,0,1,2.238,3.243,2.812,2.812,0,0,1-2.349,2.617,27.577,27.577,0,0,1-4.282.248q-77.722.055-155.442.073c-2.439,0-5.665.54-5.8-3.056-.131-3.615,3.035-3.329,5.529-3.364,5.2-.071,10.4-.193,15.6-.066,3.12.076,4.628-.974,4.623-4.269-.042-25.819-.506-51.618-2.843-77.354-.367-4.031-2.019-3.748-4.834-1.987-11.613,7.263-24.226,11.078-37.919,8.842-18.983-3.1-29.972-15.73-36.637-32.739-6.233-15.909-5.032-32.375-2.9-48.835.529-4.079,1.194-8.142,1.8-12.211,1.913-2.109.513-7.812,5.191-6.474,4.855,1.387,1.4,5.632,1.27,8.668-.111,2.659-1.551,5.137-1.063,7.877-.656,4.422-1.558,8.821-1.927,13.265-1.435,17.322.034,34.061,10.857,48.652,8.03,10.825,18.694,16.456,32.324,15.8,14.108-.681,25.779-6.907,35.835-16.411,13.331-12.6,22.381-28.283,31.337-44.018l14.234-20.981,6.8-7.576c-3.208-.888-5.336.1-7.415,1.116-1.967.96-3.6.57-4.575-1.259-1-1.886-.132-3.388,1.6-4.51,2.059-1.33,4.627-1.876,6.375-4.074-2.451-.672-4.273.638-6.236,1.313-2.558.879-5.122,4.937-7.794.919-2.294-3.449,1.85-4.72,3.387-6.839.154-.213.075-.6.131-1.17-5.611.647-10.938,1.754-15.3,5.616-6.36,3.718-10.651,9.448-14.7,15.352-6.353,9.27-12.106,18.958-19.418,27.552-1.227,1.029-2.458,2.054-3.681,3.087a42.393,42.393,0,0,1-9.266,6.346c-8.8,4.105-14.023.864-17.251-10.624-.05-3.528-.081-7.057-.157-10.584-.046-2.138.4-4.082,2.939-4.115,2.452-.032,3.026,1.865,3.334,3.972.581,3.978-.418,8.134,1.354,11.972.051,4.412,2.706,5.079,6.078,3.815,2.09-.785,3.891-2.34,5.821-3.55,7.522-4.977,12.3-12.364,17.092-19.687,6.562-10.023,12.866-20.227,22.288-27.961a41.179,41.179,0,0,1,21.228-7.832c3.571-.339,16.265,6.225,17.672,9.366a8.505,8.505,0,0,1,.451,3.12c.034,1.013-.628,2.106.388,2.976,5.162,4.422,2.16,8.083-1.044,11.78C-1625.062,151.032-1626.319,152.747-1627.638,154.41Z" transform="translate(1.71 16.168)"/><path class="c" d="M-1551.11,92.763q-.27-3.625-.537-7.248c2.618-.311,4.282,1.539,6.189,2.783,5.32,3.476,10.913,6.1,17.456,6.031,7.481-.081,12.431-3.945,14.384-11.2,2.151-7.98.258-15.614-2.076-23.159-3.534-11.422-8.922-22.235-11.233-34.063-.649-6.06-1.355-12.141,1.026-18.007,1.727-4.253,4.495-7.3,9.5-7.439,4.783-.136,7.678,2.554,9.508,6.568a28.068,28.068,0,0,1,2.394,7.078c.59,3.747,2.215,4.855,5.644,3.187.347,4.76-.234,9.68,2.563,14,1.588,2.454,2.763,2.445,3.814-.4a40.975,40.975,0,0,0,2.534-17.316c3.669-1.227,3.807-4.163,3.532-7.3,5.156,1.537,10.207,3.284,14.724,6.344,11.678,7.912,12.132,22.836,2.066,28.685-2.673,1.554-1.442,3.654-1,5.666,3.468,15.9,7.582,31.679,7.795,48.116.132,10.169-1.282,19.99-5.8,29.2-5.023,10.242-12.725,17.6-23.537,21.537q-.836-3.169-1.672-6.338c16.713-6.878,22.981-20.752,24.3-37.423,1.472-18.679-3.674-36.567-7.68-54.551-.385-1.733-1.2-2.959-3.25-2.834-16.989,1.035-22.733-11.713-29.07-23.732a40.678,40.678,0,0,0-3.209-11.271c-.715-1.448-1.682-2.823-3.622-2.7-1.893.116-2.848,1.5-3.4,3.02a22.045,22.045,0,0,0-.432,14.157c.139,4.373,1.623,8.431,3.045,12.48,2.494,7.1,5.336,14.081,7.641,21.238,2.765,8.585,4.592,17.339,2.359,26.425-2.575,10.483-10.154,16.335-20.948,16.524C-1536.844,100.984-1543.923,96.807-1551.11,92.763Zm72.234-69.886c-.079-1.422-.172-2.843-.233-4.265-.082-1.955-.676-3.812-2.924-3.629-2.035.167-1.286,2.223-1.342,3.476a53.638,53.638,0,0,1-3.162,15.1c-.445,1.3-2.069,2.954.368,4.054,2.452,1.106,3.59-.37,4.495-2.331A27.824,27.824,0,0,0-1478.875,22.877Zm6.565-1.871c.056,5.835-1.227,10.161-1.975,14.838C-1468.174,32.216-1467.489,28.428-1472.311,21.007Z" transform="translate(18.028 6.874)"/><path class="d" d="M-1735.542-38.488c.255,6.057.25,12.139.846,18.161.515,5.205-1.512,6.774-6.554,7.073-11.116.66-22.081-.575-33.084-1.557-8.869-2.122-8.875-2.122-9.493-11.426q-1.082-16.27-2.146-32.542c-.357-5.478.476-6.274,6.011-5.568,6.527.834,12.99,2.295,19.634,1.947a101.784,101.784,0,0,0,17.145.1c3.677-.033,5.251,1.748,5.532,5.46C-1737.184-50.7-1736.269-44.6-1735.542-38.488Z" transform="translate(58.472 -16)"/><path class="d" d="M-1499.634,20.066c-3.428,1.668-5.054.56-5.643-3.187a28.063,28.063,0,0,0-2.394-7.078c-1.83-4.014-4.724-6.7-9.508-6.568-5.006.142-7.775,3.186-9.5,7.439-2.381,5.866-1.675,11.948-1.026,18.007-4.821,1.609-7.176-.071-8.206-5.139-2.539-12.487-4.168-25.075-5.448-37.737-.411-4.065.689-6.15,4.712-7.556,11.491-4.017,22.821-8.495,34.225-12.763,6.346-2.376,7.19-1.915,8.425,4.949,2.315,12.867,4.543,25.749,6.807,38.625.276,3.137.138,6.073-3.531,7.3Z" transform="translate(18.808 4.104)"/><path class="d" d="M-1494.564,130.638q.836,3.168,1.672,6.338c1.217,5.219,2.22,10.5,3.726,15.637,1.035,3.529.4,5.453-3.4,6.188q-17.926,3.47-35.813,7.138c-3.564.729-5.376-.684-6.14-4.107-1.829-8.207-3.762-16.391-5.652-24.585l-1.573-7.734c-1.342-4.968.627-7.093,5.694-7.717,7.758-.955,15.4-2.85,23.163-3.773,16.323-1.942,13.453-4.755,17.97,11.606C-1494.818,129.972-1494.681,130.3-1494.564,130.638Z" transform="translate(18.754 15.736)"/><path class="c" d="M-1540.338,129.292l1.573,7.734c-8.272-1.846-14.705-7.192-21.729-11.416a19.412,19.412,0,0,1,3.452-6.184C-1551.847,123.345-1546.885,127.661-1540.338,129.292Z" transform="translate(17.353 15.958)"/><path class="d" d="M-1634.757,157c1.318-1.663,2.576-3.378,3.965-4.979,3.2-3.7,6.206-7.358,1.044-11.78-1.016-.87-.354-1.963-.388-2.976a8.508,8.508,0,0,0-.451-3.12c-1.407-3.142-14.1-9.706-17.672-9.366a41.179,41.179,0,0,0-21.228,7.832c-3.775-3.123-3.244-5.824-.008-9.354,9.438-10.288,18.463-20.952,27.73-31.4,4.261-4.8,5.167-4.732,8.986.107,9.876,12.515,21.533,22.971,35.709,30.393,4.291,2.246,4.267,4.46,1.295,7.848-7.792,8.881-15.662,17.717-22.972,26.988-3.494,4.431-6.707,5.126-11.22,2.21A46.836,46.836,0,0,0-1634.757,157Z" transform="translate(8.829 13.581)"/><path class="c" d="M-1611.015,38.742c-7.758-.026-14.805-4.68-16.984-10.74-.706-1.963-1.707-4.345,1.031-5.59,2.643-1.2,3.659.688,4.772,2.781,3.764,7.079,8.42,8.668,16.024,5.507,2.216-.921,4.164-1.573,5.375,1.1,1.1,2.426-.74,3.67-2.482,4.608A18.529,18.529,0,0,1-1611.015,38.742Z" transform="translate(12.139 8.522)"/><path class="c" d="M-1613.188-3.95c2.346.324,3.029,1.865,3.371,3.738.956,5.233,1.873,10.475,2.935,15.688.479,2.352-.344,4.11-2.495,4.553-2.3.473-3.4-1.105-3.8-3.4-.905-5.242-2.038-10.444-3.013-15.674C-1616.665-1.621-1616.188-3.692-1613.188-3.95Z" transform="translate(13.088 6.537)"/><path class="c" d="M-1624.209,4.667c2.468.5,3.516,1.848,3.507,4.177-.009,2.137-.871,3.472-3.083,3.52-2.626.057-3.233-1.819-3.372-3.934C-1627.3,6.238-1625.841,5.315-1624.209,4.667Z" transform="translate(12.262 7.195)"/><path class="c" d="M-1600.162.565a3.676,3.676,0,0,1,3.071,4.334c-.2,1.944-1.425,3.411-3.594,3.074-2.111-.329-2.737-1.974-2.7-3.979A3.122,3.122,0,0,1-1600.162.565Z" transform="translate(14.078 6.882)"/><path class="e" d="M-1705.416,173.749c-1.93,1.21-3.731,2.765-5.821,3.55-3.372,1.265-6.028.6-6.078-3.815Q-1711.365,173.615-1705.416,173.749Z" transform="translate(5.378 20.086)"/><path class="b" d="M-1653.3,171.018c-11.993,1.645-23.982,3.31-35.98,4.914-2.292.307-4.614.37-6.923.545,7.313-8.594,13.066-18.282,19.418-27.552,4.046-5.9,8.336-11.634,14.7-15.352a127.111,127.111,0,0,0,23.022,16.464Z" transform="translate(6.99 17.038)"/><path class="f" d="M-1641.481,150.435a127.11,127.11,0,0,1-23.022-16.464c4.362-3.862,9.689-4.97,15.3-5.616-.056.575.023.957-.131,1.17-1.537,2.119-5.681,3.391-3.387,6.839,2.672,4.018,5.235-.04,7.794-.919,1.963-.675,3.786-1.985,6.237-1.313-1.748,2.2-4.316,2.744-6.375,4.074-1.734,1.122-2.6,2.624-1.6,4.51.975,1.83,2.609,2.219,4.576,1.259,2.078-1.014,4.208-2,7.415-1.116Z" transform="translate(9.411 16.64)"/><path class="f" d="M-1511.7,20.5l-10.668,3.2a22.038,22.038,0,0,1,.432-14.157c.557-1.517,1.511-2.9,3.4-3.02,1.94-.119,2.907,1.256,3.622,2.7A40.674,40.674,0,0,1-1511.7,20.5Z" transform="translate(20.19 7.337)"/></g></g><g transform="translate(306 3948)"><g class="g" transform="translate(90 -1454)"><path class="i" d="M 86 45.5 L 6 45.5 C 1.313085675239563 45.5 -2.5 41.68691253662109 -2.5 37 L -2.5 6 C -2.5 1.313085675239563 1.313085675239563 -2.5 6 -2.5 L 86 -2.5 C 90.68691253662109 -2.5 94.5 1.313085675239563 94.5 6 L 94.5 37 C 94.5 41.68691253662109 90.68691253662109 45.5 86 45.5 Z"/><path class="j" d="M 6 0 C 2.686302185058594 0 0 2.686283111572266 0 6 L 0 37 C 0 40.31370162963867 2.686302185058594 43 6 43 L 86 43 C 89.31369781494141 43 92 40.31370162963867 92 37 L 92 6 C 92 2.686283111572266 89.31369781494141 0 86 0 L 6 0 M 6 -5 L 86 -5 C 88.93820190429688 -5 91.70054626464844 -3.855800628662109 93.77816772460938 -1.778182983398438 C 95.85579681396484 0.2994499206542969 97 3.061782836914062 97 6 L 97 37 C 97 39.93820190429688 95.85579681396484 42.7005500793457 93.77816772460938 44.77816772460938 C 91.70054626464844 46.85580062866211 88.93820190429688 48 86 48 L 6 48 C 3.061798095703125 48 0.2994537353515625 46.85580062866211 -1.778167724609375 44.77816772460938 C -3.855796813964844 42.7005500793457 -5 39.93820190429688 -5 37 L -5 6 C -5 3.061782836914062 -3.855796813964844 0.2994499206542969 -1.778167724609375 -1.778182983398438 C 0.2994537353515625 -3.855800628662109 3.061798095703125 -5 6 -5 Z"/></g><path class="h" d="M8.33.35A8.467,8.467,0,0,1,4.62-.473a7.386,7.386,0,0,1-2.8-2.293A2.212,2.212,0,0,1,1.4-3.99a1.911,1.911,0,0,1,.665-1.452A2.015,2.015,0,0,1,3.43-6.055a2.932,2.932,0,0,1,1.96,1.05,4.1,4.1,0,0,0,1.365.892A4.46,4.46,0,0,0,8.33-3.85a3.888,3.888,0,0,0,1.943-.525A4.128,4.128,0,0,0,11.76-5.793a3.47,3.47,0,0,0,.56-1.872v-14.7a1.986,1.986,0,0,1,.665-1.523,2.2,2.2,0,0,1,1.54-.612,2.129,2.129,0,0,1,1.575.595,2.084,2.084,0,0,1,.595,1.54v14.7a7.525,7.525,0,0,1-1.12,3.955A8.323,8.323,0,0,1,12.53-.752,8.3,8.3,0,0,1,8.33.35ZM32.06-24.5a6.045,6.045,0,0,1,3.4,1.068,7.9,7.9,0,0,1,2.59,2.87,8.11,8.11,0,0,1,.98,3.938,8.141,8.141,0,0,1-.98,3.92,7.863,7.863,0,0,1-2.59,2.887,6.045,6.045,0,0,1-3.4,1.068H25.97v6.615A2.156,2.156,0,0,1,25.41-.6a1.925,1.925,0,0,1-1.47.6A1.857,1.857,0,0,1,22.5-.613a2.171,2.171,0,0,1-.56-1.522v-20.23a2.067,2.067,0,0,1,.612-1.523A2.067,2.067,0,0,1,24.08-24.5Zm0,11.76a2.007,2.007,0,0,0,1.313-.56,4.127,4.127,0,0,0,1.05-1.452,4.5,4.5,0,0,0,.4-1.873,4.5,4.5,0,0,0-.4-1.873,3.954,3.954,0,0,0-1.05-1.435,2.04,2.04,0,0,0-1.312-.542H25.97v7.735Zm29.05-.49a2.009,2.009,0,0,1,1.5.612,2.1,2.1,0,0,1,.6,1.523v7.42a2.1,2.1,0,0,1-1.085,1.89A13.964,13.964,0,0,1,54.6.35a12.587,12.587,0,0,1-6.4-1.7A12.715,12.715,0,0,1,43.54-5.932a12.146,12.146,0,0,1-1.715-6.318,12.146,12.146,0,0,1,1.715-6.317,12.715,12.715,0,0,1,4.655-4.585,12.587,12.587,0,0,1,6.4-1.7,12.339,12.339,0,0,1,6.02,1.4,1.926,1.926,0,0,1,.787.735,1.928,1.928,0,0,1,.262.98,2.214,2.214,0,0,1-.577,1.523,1.827,1.827,0,0,1-1.417.647,2.872,2.872,0,0,1-1.155-.28,9.906,9.906,0,0,0-3.92-.805,7.862,7.862,0,0,0-4.13,1.137,8.371,8.371,0,0,0-2.993,3.063,8.3,8.3,0,0,0-1.1,4.2,8.3,8.3,0,0,0,1.1,4.2A8.371,8.371,0,0,0,50.47-4.987,7.862,7.862,0,0,0,54.6-3.85a13.643,13.643,0,0,0,2.1-.175,12.2,12.2,0,0,0,1.96-.455V-9.03H55.37a2.1,2.1,0,0,1-1.522-.6,2.009,2.009,0,0,1-.612-1.5,2.009,2.009,0,0,1,.612-1.505,2.1,2.1,0,0,1,1.522-.595Z" transform="translate(102.5 -1420.5)"/></g></g></svg>