<svg xmlns="http://www.w3.org/2000/svg" width="364" height="23.939" viewBox="0 0 364 23.939"><defs><style>.a{fill:#1d64d6;}</style></defs><path class="a" d="M1976.363-139.428c-1.336.991-5.333,3.123-8.435,3.2-10.04.248-16.25-5.007-24.777-11.181-2.265-2.609-6.762-2.642-8.8-.654s-5.09,3.177-6.92,5.33c-8.441,5.9-7.785,7.433-14.849,4.849-4.757-1.731-8.986-5.077-13.124-8.142-2.291-1.7-6.7-2.352-8.75-.439-1.722,1.59-2.93,2.117-4.794,3.732-.744.646-2.331,1.675-3.142,2.246-9.078,6.32-7.163,8.119-15.982,6.057-6.32-1.474-11.068-5.947-14.687-11.736-1.254-2-6.972-3.081-9.137-1.168-1.53,1.358-1.555,1.126-2.993,2.568-1.379,1.383-4.33,6.253-7.289,8.581.05.075-.05-.083,0,0-1.781.936-2.926,1.806-3.937,1.739a28.945,28.945,0,0,1-5.843-.588c-2.541-.737-5.317-1.5-7.314-3.081a32.331,32.331,0,0,1-6.479-7.38c-1.939-2.891-4-3.5-6.763-1.516a20.952,20.952,0,0,0-4.765,3.976c-8.142,10.834-20.1,7.761-28.339,2.982a24.3,24.3,0,0,1-6.629-6.121c-2.3-2.949-4.414-3.3-7.256-.986-2.341,1.922-5.116,3.412-7.139,5.6-6.679,7.214-14.579,6.576-22.529,3.354-4.255-1.723-7.8-5.1-11.946-7.156-2.081-1.027-5.124-1.64-7.172-.911a21.367,21.367,0,0,0-8.543,5.533c-10.641,11.985-24.777,8.332-34.382.34a55.247,55.247,0,0,1-4.8-4.564c-4.23-4.5-4.673-4.589-9.48-1.068q-5,3.653-9.948,7.355c-7.8,5.864-19.327,5.384-26.424-1.226a2.546,2.546,0,0,1-.493-2.4,2.728,2.728,0,0,1,2.432-.861,20.791,20.791,0,0,1,4.322,2.245c3.168,1.93,6.261,2.079,9.3-.2,5.158-3.851,10.065-8.109,15.524-11.5,6.236-3.86,14.086-2.65,19.578,2.336,2.851,2.592,5.392,5.516,8.209,8.142,3.837,3.595,6.846,3.727,10.959.489,3.235-2.551,6.178-5.491,9.513-7.91,9.622-6.941,19.653-5.069,29.383,1.309,9.346,6.121,7.356,8.771,18.759-.48,6.295-5.11,13.1-8.688,21.317-5.781,3.57,1.259,6.6,4.034,9.864,6.162.309.207.41.7.66,1.027,5.3,6.692,7.85,6.85,14.328.861,5.266-4.87,10.9-8.722,18.667-8.349,6.721.323,11.536,3.106,14.721,9,1.179,2.187,2.3,6.007,6.3,4.243.175-.083.176-.524.5-.35,6.612-9.782,13.383-14.942,24.468-12.656,4.715.969,8.142,3.735,11.168,7.305,6.88,8.1,6.922,8.034,14.93.6,4.89-4.539,9.889-8.556,17.346-8.117,5.827.34,10.082,3.106,14.194,6.725,6.562,5.781,4.581,6.651,12.456-.041a64.823,64.823,0,0,1,8.008-6.361c8.685-5.268,17.463-1.739,25.162,6.1,3.695,3.769,9.673,7.112,15.308,5.1C1974.827-145.038,1973.036-145.192,1976.363-139.428Z" transform="translate(-1612.364 156.972)"/></svg>